<?xml version="1.0" encoding="utf-8"?>
<?xml-stylesheet type="text/xsl" href="rss1.xsl"?>
<rss version="2.0" xmlns:atom="http://www.w3.org/2005/Atom" xmlns:content="http://purl.org/rss/1.0/modules/content/" xmlns:dc="http://purl.org/dc/elements/1.1/" xmlns:media="http://search.yahoo.com/mrss/">
<channel>
 <title>Getty</title>
 <link>http://www.gettyimg.com/</link>
 <atom:link href="http://www.gettyimg.com/" rel="self" type="application/rss+xml" />

 
                <item>
                <title><![CDATA[【HD Live Performances】UPSCALE - Như Quỳnh &amp; Mạnh Quỳnh - Nối Lại Tình Xưa - PBN 79 4K Upscale]]></title>
                <link><![CDATA[https://sharemania.us/threads/nh%C6%B0-qu%E1%BB%B3nh-m%E1%BA%A1nh-qu%E1%BB%B3nh-n%E1%BB%91i-l%E1%BA%A1i-t%C3%ACnh-x%C6%B0a-pbn-79-4k-upscale.235711/]]></link>
                <description><![CDATA[<article>
<blockquote class="messageText SelectQuoteContainer ugc baseHtml">
<img src="https://i.imgur.com/FT8JlyM.jpeg" class="bbCodeImage LbImage" alt="[​IMG]" data-url="https://i.imgur.com/FT8JlyM.jpeg" style=""> <br>
<br>
<div class="ToggleTriggerAnchor bbCodeSpoilerContainer">
<button type="button" class="button bbCodeSpoilerButton ToggleTrigger Tooltip JsOnly" data-target="> .SpoilerTarget"><span>Spoiler: <span class="SpoilerTitle">MediaInfo</span></span></button>
<div class="SpoilerTarget bbCodeSpoilerText">General<br>
Complete name : C:\Videos\Như Quỳnh &amp; Mạnh Quỳnh - Nối Lại Tình Xưa - PBN 79 4K Upscale.mp4<br>
Format : MPEG-4<br>
Format profile : Base Media<br>
Codec ID : isom (isom/iso2/mp41)<br>
File size : 1.91 GiB<br>
Duration : 4 min 32 s<br>
Overall bit rate : 60.2 Mb/s<br>
Encoded date : UTC 2024-01-13 02:04:51<br>
Tagged date : UTC 2024-01-13 02:07:15<br>
encoder : Lavf58.76.100<br>
<br>
Video<br>
ID : 1<br>
Format : HEVC<br>
Format/Info : High Efficiency Video Coding<br>
Format profile : Main@L6.2@Main<br>
Codec ID : hvc1<br>
Codec ID/Info : High Efficiency Video Coding<br>
Duration : 4 min 32 s<br>
Bit rate : 60.0 Mb/s<br>
Width : 3 840 pixels<br>
Height : 2 160 pixels<br>
Display aspect ratio : 16:9<br>
Frame rate mode : Constant<br>
Frame rate : 30.000 FPS<br>
Color space : YUV<br>
Chroma subsampling : 4:2:0<br>
Bit depth : 8 bits<br>
Bits/(Pixel*Frame) : 0.241<br>
Stream size : 1.90 GiB (100%)<br>
Encoded date : UTC 2024-01-13 02:04:51<br>
Tagged date : UTC 2024-01-13 02:07:15<br>
Color range : Limited<br>
Color primaries : BT.709<br>
Transfer characteristics : BT.709<br>
Matrix coefficients : BT.709<br>
Codec configuration box : hvcC<br>
<br>
Audio<br>
ID : 2<br>
Format : AAC LC<br>
Format/Info : Advanced Audio Codec Low Complexity<br>
Codec ID : mp4a-40-2<br>
Duration : 4 min 32 s<br>
Source duration : 4 min 32 s<br>
Bit rate mode : Constant<br>
Bit rate : 192 kb/s<br>
Channel(s) : 2 channels<br>
Channel layout : L R<br>
Sampling rate : 44.1 kHz<br>
Frame rate : 43.066 FPS (1024 SPF)<br>
Compression mode : Lossy<br>
Stream size : 6.23 MiB (0%)<br>
Source stream size : 6.23 MiB (0%)<br>
Default : Yes<br>
Alternate group : 1<br>
Encoded date : UTC 2024-01-13 02:04:51<br>
Tagged date : UTC 2024-01-13 02:07:15<br>
mdhd_Duration : 272812</div>
</div><br>
<div class="bbCodeBlock bbCodeVfcHH HiddenContent">
<div class="attribution type">Hidden Content:</div>
<blockquote>You must reply before you can see the hidden data contained here.</blockquote>
</div>
<div class="messageTextEndMarker">&nbsp;</div>
</blockquote>
</article>]]></description>
                <author><![CDATA[Avril1255]]></author>
                </item>

                
                <item>
                <title><![CDATA[【Requests】[REQ AUD] - Pimpinela Festival de Viña 2024 full]]></title>
                <link><![CDATA[https://sharemania.us/threads/pimpinela-festival-de-vi%C3%B1a-2024-full.235710/]]></link>
                <description><![CDATA[<article>
<blockquote class="messageText SelectQuoteContainer ugc baseHtml">
Thank you very much my dear friend. You are my everything! Thank you!
<div class="messageTextEndMarker">&nbsp;</div>
</blockquote>
</article>]]></description>
                <author><![CDATA[EdgardSS]]></author>
                </item>

                </channel></rss>